<svg width="29" height="16" viewBox="0 0 29 16" fill="none" xmlns="http://www.w3.org/2000/svg">
<path d="M21.2479 4.06587H22.8764C23.4437 4.06587 24.0128 4.06587 24.5818 4.06587C24.8145 4.055 25.0453 4.11132 25.2468 4.22809C25.4483 4.34487 25.612 4.51717 25.7182 4.72442C26.5438 6.20498 27.3682 7.68435 28.1914 9.16252C28.4329 9.60057 28.5563 10.094 28.5493 10.5942C28.5493 11.403 28.5493 12.2048 28.5493 13.0208C28.5493 13.6131 28.2325 13.9514 27.6366 13.9156C27.1606 13.8887 26.8922 13.9621 26.7043 14.4936C26.3607 15.46 25.3227 16.0487 24.3206 15.9968C23.7957 15.9789 23.2898 15.7964 22.8743 15.4753C22.4587 15.1542 22.1546 14.7106 22.0049 14.2073C21.9995 14.1621 21.9849 14.1185 21.9621 14.0792C21.9393 14.0398 21.9087 14.0055 21.8722 13.9784C21.8357 13.9512 21.794 13.9318 21.7498 13.9213C21.7055 13.9109 21.6596 13.9095 21.6148 13.9174C19.0306 13.9174 16.4483 13.9174 13.866 13.9174H13.5636C13.5349 14.0068 13.5081 14.0856 13.483 14.1661C13.326 14.6918 13.0041 15.153 12.5649 15.4817C12.1257 15.8103 11.5924 15.9891 11.0439 15.9915C10.5001 15.9898 9.97144 15.8126 9.53648 15.4863C9.10152 15.16 8.78351 14.702 8.62976 14.1804C8.56354 13.9514 8.46332 13.912 8.25037 13.9138C7.06568 13.9138 5.881 13.9138 4.69453 13.9138C4.23998 13.9138 4.08607 13.7599 4.08607 13.3089C4.08607 12.3372 4.08607 11.3655 4.08607 10.3508H3.76216C2.68843 10.3508 1.6147 10.3508 0.551703 10.3508C0.297586 10.3508 0.088208 10.2434 0.0703125 9.99288C0.0790236 9.81066 0.153395 9.63775 0.279687 9.50612C0.34948 9.42737 0.530226 9.42738 0.660863 9.4238C1.11362 9.4238 1.56638 9.4238 2.01914 9.4238H6.12438C6.23018 9.41959 6.33614 9.42438 6.44113 9.43811C6.5578 9.45159 6.66438 9.51076 6.7375 9.60267C6.81063 9.69458 6.84434 9.81173 6.83125 9.92845C6.83009 9.98446 6.81785 10.0397 6.79523 10.0909C6.77261 10.1422 6.74006 10.1885 6.69946 10.2271C6.65886 10.2657 6.61102 10.2958 6.55869 10.3158C6.50637 10.3358 6.45059 10.3453 6.3946 10.3436C6.04742 10.3544 5.70025 10.3436 5.35487 10.3436H5.02917V13.0136H5.30297C6.29617 13.0136 7.28759 13.0136 8.28079 13.0136C8.45975 13.0136 8.55996 12.9832 8.6208 12.7721C8.76747 12.243 9.08385 11.7768 9.52131 11.445C9.95876 11.1133 10.4931 10.9344 11.0421 10.936C11.5908 10.9318 12.1258 11.107 12.5658 11.4349C13.0058 11.7627 13.3266 12.2254 13.4794 12.7524C13.5278 12.9081 13.5582 13.0172 13.7729 13.0154C15.8828 13.0154 17.9945 13.0154 20.1044 13.0154C20.1599 13.0154 20.2171 13.0047 20.2994 12.9975V0.934148H5.02738V2.35505H5.41213C6.16375 2.35505 6.91536 2.35505 7.66697 2.35505C7.99625 2.35505 8.18952 2.53401 8.20384 2.80244C8.20657 2.86817 8.19505 2.93371 8.17008 2.99456C8.14511 3.05542 8.10728 3.11017 8.05918 3.15504C8.01108 3.19991 7.95384 3.23385 7.8914 3.25454C7.82895 3.27522 7.76277 3.28217 7.69739 3.27489C5.84699 3.28204 3.99779 3.28204 2.14977 3.27489C2.08392 3.28447 2.01676 3.27966 1.95295 3.26076C1.88914 3.24187 1.83018 3.20935 1.78015 3.16545C1.73013 3.12156 1.69024 3.06732 1.66322 3.0065C1.6362 2.94568 1.62269 2.87973 1.62364 2.81318C1.62364 2.54296 1.82586 2.36758 2.16051 2.36221C2.69738 2.36221 3.22172 2.36221 3.75143 2.36221H4.08607C4.08607 1.8683 4.08607 1.40838 4.08607 0.948465C4.08607 0.327489 4.40641 0 5.02738 0C10.1145 0 15.2028 0 20.2923 0C20.9276 0 21.2479 0.325699 21.2515 0.96636C21.2515 1.97925 21.2479 2.99214 21.2479 4.06587ZM27.6205 12.994C27.6205 12.1994 27.6491 11.4209 27.608 10.6443C27.5915 10.2629 27.4952 9.88914 27.3252 9.54727C26.5557 8.10489 25.7415 6.68399 24.9505 5.25234C24.9101 5.1658 24.8438 5.09397 24.7607 5.04683C24.6777 4.99969 24.582 4.97958 24.487 4.98928C23.5922 4.98928 22.6974 4.98928 21.8027 4.98928H21.2837V12.9957C21.8599 13.028 21.8599 13.028 22.0657 12.5161C22.2544 12.0486 22.5783 11.648 22.9959 11.3656C23.4135 11.0831 23.9059 10.9317 24.41 10.9306C24.9141 10.9296 25.4071 11.0789 25.8259 11.3594C26.2448 11.6399 26.5705 12.0389 26.7615 12.5054C26.9727 13.0333 26.9727 13.0333 27.6205 12.994ZM9.45474 13.4557C9.44996 13.6676 9.48766 13.8784 9.5656 14.0756C9.64355 14.2728 9.76016 14.4524 9.90859 14.6038C10.057 14.7553 10.2342 14.8754 10.4298 14.9573C10.6254 15.0392 10.8354 15.0811 11.0474 15.0806C11.2593 15.0787 11.4686 15.0351 11.6635 14.9522C11.8585 14.8693 12.0351 14.7487 12.1834 14.5975C12.3317 14.4462 12.4487 14.2672 12.5277 14.0706C12.6066 13.8741 12.6461 13.6639 12.6437 13.4521C12.6433 13.2425 12.6015 13.035 12.5208 12.8415C12.4402 12.648 12.3222 12.4723 12.1737 12.3244C12.0251 12.1765 11.8489 12.0593 11.655 11.9795C11.4612 11.8997 11.2535 11.8589 11.0439 11.8594C10.8342 11.8579 10.6263 11.8983 10.4324 11.9781C10.2384 12.0579 10.0624 12.1755 9.91443 12.3242C9.76649 12.4728 9.64964 12.6494 9.57071 12.8436C9.49178 13.0379 9.45236 13.246 9.45474 13.4557ZM22.8173 13.4753C22.8152 13.6875 22.8554 13.8979 22.9356 14.0942C23.0157 14.2906 23.1343 14.469 23.2843 14.619C23.4343 14.769 23.6127 14.8876 23.8091 14.9677C24.0054 15.0479 24.2158 15.0881 24.4279 15.0859C24.6374 15.0829 24.8442 15.0386 25.0365 14.9555C25.2289 14.8724 25.4029 14.7522 25.5487 14.6018C25.6945 14.4513 25.8091 14.2736 25.8861 14.0788C25.9631 13.884 26.0009 13.6759 25.9974 13.4664C26.0007 13.2561 25.9621 13.0472 25.884 12.8519C25.8058 12.6567 25.6895 12.4789 25.5419 12.329C25.3944 12.1791 25.2185 12.0601 25.0244 11.9788C24.8304 11.8976 24.6222 11.8558 24.4118 11.8558C24.2002 11.855 23.9905 11.8966 23.7952 11.9781C23.5999 12.0595 23.4228 12.1792 23.2744 12.3301C23.126 12.481 23.0093 12.6601 22.9311 12.8568C22.8529 13.0534 22.8148 13.2637 22.8191 13.4753H22.8173Z" fill="black"></path>
</svg>