<svg width="20" height="16" viewBox="0 0 20 16" fill="none" xmlns="http://www.w3.org/2000/svg">
<path d="M19.7346 3.1403C17.3053 2.11955 14.8771 1.09587 12.4501 0.0692515C12.3495 0.0235823 12.2409 0 12.131 0C12.0212 0 11.9125 0.0235823 11.812 0.0692515C9.63858 0.975607 7.26213 1.96292 4.5496 3.08575C4.4687 3.11111 4.39859 3.16415 4.35083 3.23614C4.30307 3.30812 4.28052 3.39475 4.28689 3.48173C4.28689 4.20564 4.28689 4.92896 4.28689 5.6517V6.09696C4.28689 6.14096 4.28689 6.18319 4.28689 6.22895H0.559287C0.485597 6.22646 0.411857 6.23177 0.339218 6.2448C0.255293 6.25998 0.1782 6.30223 0.119034 6.36548C0.0598675 6.42873 0.0216795 6.50972 0.00996247 6.59678C-0.0100465 6.68499 0.000279647 6.77764 0.0391801 6.85886C0.0780805 6.94008 0.143137 7.00484 0.223211 7.04204C0.351956 7.10819 0.492442 7.14652 0.636059 7.15467C1.47711 7.15467 2.31816 7.15467 3.16092 7.15467H4.10434C4.15041 7.15467 4.19476 7.15467 4.24082 7.15467V8.1807H3.1541C2.6679 8.1807 2.56383 8.42181 2.56383 8.6242C2.56151 8.67803 2.57003 8.73177 2.58882 8.78205C2.60761 8.83232 2.63627 8.87805 2.67301 8.91634C2.80749 9.03105 2.98026 9.08667 3.1541 9.07122H4.234V10.1025H1.31164C1.22093 10.1009 1.13038 10.111 1.04209 10.1324C0.953367 10.1521 0.874107 10.2032 0.818028 10.2768C0.76195 10.3504 0.732584 10.4419 0.735009 10.5355C0.728095 10.6326 0.755074 10.7291 0.811073 10.8075C0.867072 10.8859 0.948396 10.9411 1.04038 10.9631C1.1229 10.9844 1.20786 10.9938 1.29287 10.9913H4.24935V11.3292C4.24935 11.6565 4.24935 11.9751 4.24935 12.2919C4.24076 12.4079 4.26955 12.5235 4.33125 12.6209C4.39295 12.7183 4.4841 12.792 4.59055 12.8304C7.01419 13.8652 9.43671 14.9024 11.8581 15.9419C11.9411 15.9791 12.0304 15.9988 12.1208 16C12.206 15.9995 12.2902 15.9809 12.3682 15.9454C14.7907 14.9047 17.2132 13.8682 19.6357 12.8357C19.7467 12.7982 19.8426 12.7238 19.9084 12.6241C19.9741 12.5245 20.006 12.4052 19.9991 12.2848C19.9991 9.36923 19.9991 6.45364 19.9991 3.53805C20.003 3.45108 19.9793 3.36516 19.9316 3.29337C19.8839 3.22157 19.8147 3.16782 19.7346 3.1403ZM12.6394 6.9646C14.3454 6.236 16.0514 5.50387 17.7574 4.76823L19.1324 4.17865V5.71858C19.1392 7.7941 19.1466 9.86904 19.1546 11.9434C19.1546 12.0789 19.1273 12.1194 18.9977 12.1757C17.3428 12.8797 15.6892 13.5872 14.0366 14.2982L12.6428 14.8965L12.5524 14.9335C12.5524 14.9141 12.5524 14.8948 12.5524 14.8772V12.4133C12.5524 10.6534 12.5524 8.89347 12.5524 7.13355C12.5609 7.02092 12.5678 6.99803 12.6394 6.96636V6.9646ZM11.6926 14.9317C11.6619 14.9212 11.6329 14.9106 11.6056 14.8983L10.1623 14.2788C8.51888 13.5748 6.87544 12.8709 5.232 12.1669C5.12282 12.1194 5.09552 12.0789 5.10064 11.9575C5.10917 11.7181 5.10064 11.4823 5.10064 11.2306C5.10064 11.1585 5.10064 11.0846 5.10064 11.0089H6.29483C6.38548 11.0116 6.47609 11.0021 6.56438 10.9807C6.65261 10.96 6.73112 10.9083 6.7865 10.8344C6.84188 10.7606 6.87071 10.6693 6.86805 10.5759C6.87526 10.4789 6.84836 10.3825 6.79228 10.3043C6.7362 10.2261 6.65469 10.1713 6.56267 10.15C6.47451 10.1279 6.38381 10.1184 6.29313 10.1219H5.116V9.09058H8.23967C8.53139 9.07298 8.72758 8.88115 8.71394 8.6242C8.71039 8.56281 8.69473 8.50281 8.66793 8.44787C8.64114 8.39293 8.60377 8.3442 8.5581 8.30467C8.51243 8.26513 8.45944 8.23562 8.40234 8.21794C8.34524 8.20025 8.28524 8.19477 8.22602 8.20182H5.12112V7.17227H5.22347C5.35995 7.17227 5.49473 7.17227 5.62779 7.17227C5.9417 7.17227 6.13959 6.99628 6.13959 6.71997C6.13959 6.44366 5.93828 6.28703 5.62779 6.28527H5.32072H5.13305V4.19625L5.20642 4.22441L6.7947 4.9055C8.38696 5.58717 9.97921 6.2665 11.5715 6.94348C11.6187 6.95409 11.6601 6.98306 11.6871 7.02436C11.7141 7.06566 11.7246 7.11612 11.7165 7.16523C11.7165 9.23958 11.7165 11.3145 11.7165 13.39L11.6926 14.9317ZM18.4449 3.52749H18.4296L17.0426 4.12586L12.2812 6.1832C12.2374 6.20567 12.1893 6.21736 12.1404 6.21736C12.0916 6.21736 12.0434 6.20567 11.9997 6.1832C11.3753 5.90865 10.7475 5.63762 10.106 5.35955L9.64029 5.15893L9.73241 5.11845C11.7341 4.24201 13.7369 3.36675 15.7409 2.49266C15.7996 2.46468 15.8657 2.45786 15.9286 2.4733C16.6451 2.76368 17.3599 3.06287 18.073 3.35325L18.4449 3.52749ZM14.4222 2.11956L13.8353 2.3765C12.1089 3.12857 10.3824 3.88006 8.65593 4.63095C8.59182 4.66112 8.51984 4.66855 8.45121 4.65207C7.69375 4.33529 6.92776 4.00442 6.18566 3.68412L5.81204 3.52396L8.86747 2.26035C9.91267 1.82741 10.9585 1.39565 12.0048 0.965053C12.0698 0.935665 12.1424 0.929471 12.2112 0.947452C12.9175 1.2308 13.6187 1.52119 14.3215 1.81157L14.731 1.98756L14.4222 2.11956Z" fill="black"></path>
</svg>