<svg width="24" height="16" viewBox="0 0 24 16" fill="none" xmlns="http://www.w3.org/2000/svg">
<path d="M21.9313 3.00693H19.4733V1.60417C19.4733 1.17872 19.2893 0.770738 18.962 0.469889C18.6345 0.169005 18.1904 0 17.7273 0H1.74622C1.2831 0 0.838801 0.169023 0.5115 0.469889C0.183972 0.770773 0 1.17872 0 1.60417V11.389C0 11.8145 0.183991 12.2225 0.5115 12.5233C0.838843 12.8242 1.2831 12.9932 1.74622 12.9932H4.52698V14.0993C4.52698 14.6034 4.74496 15.0868 5.13287 15.4434C5.52081 15.7998 6.0471 16 6.59596 16H21.931C22.4797 16 23.0059 15.7997 23.3941 15.4434C23.782 15.0869 24 14.6034 24 14.0993V4.9079C24 4.40373 23.782 3.92042 23.3941 3.56383C23.006 3.20746 22.4797 3.00723 21.931 3.00723L21.9313 3.00693ZM23.1727 4.9076V5.9986H5.3549V4.9076C5.3549 4.60519 5.48569 4.31498 5.71845 4.10119C5.95121 3.88736 6.26693 3.76722 6.59627 3.76722H21.9313C22.2605 3.76722 22.5764 3.88736 22.8091 4.10119C23.0419 4.31502 23.1727 4.60523 23.1727 4.9076H23.1727ZM23.1727 7.63692H5.3549V6.75887H23.1727V7.63692ZM0.827735 3.7519H4.9657C4.74587 4.00595 4.60307 4.30885 4.5519 4.63012H0.827735V3.7519ZM1.74641 0.760225H17.7275C17.9709 0.760225 18.2046 0.84915 18.377 1.00748C18.5491 1.16564 18.6459 1.38032 18.6459 1.60414V2.99165H0.828089V1.60414C0.828089 1.3803 0.924889 1.16562 1.09706 1.00748C1.26941 0.84915 1.50309 0.760225 1.74674 0.760225H1.74641ZM1.74641 12.2325V12.2326C1.50275 12.2326 1.26905 12.1437 1.09673 11.9854C0.924558 11.8272 0.827758 11.6125 0.827758 11.3887V5.39041H4.52719V12.2328L1.74641 12.2325ZM21.9312 15.2394H6.5961C6.26673 15.2394 5.95101 15.1193 5.71829 14.9055C5.48553 14.6916 5.35474 14.4014 5.35474 14.099V8.39703H23.1726V14.099C23.1726 14.4015 23.0418 14.6917 22.809 14.9055C22.5763 15.1192 22.2604 15.2394 21.9312 15.2394H21.9312Z" fill="black"></path>
</svg>